<svg width="12" height="12" viewBox="0 0 12 12" fill="none" xmlns="http://www.w3.org/2000/svg">
<path fill-rule="evenodd" clip-rule="evenodd" d="M0 6C0 2.68741 2.68741 0 6 0C9.31259 0 12 2.68741 12 6C12 9.31259 9.31259 12 6 12C2.68741 12 0 9.31259 0 6ZM6 0.923077C3.19721 0.923077 0.923077 3.19721 0.923077 6C0.923077 8.80279 3.19721 11.0769 6 11.0769C8.80279 11.0769 11.0769 8.80279 11.0769 6C11.0769 3.19721 8.80279 0.923077 6 0.923077Z" fill="#65A300"/>
<path fill-rule="evenodd" clip-rule="evenodd" d="M9.06609 3.33892C9.26127 3.50287 9.28659 3.794 9.12264 3.98918L5.24571 8.60456C5.15979 8.70685 5.03376 8.76689 4.90019 8.76917C4.76662 8.77146 4.63862 8.71575 4.54925 8.61646L2.88771 6.7703C2.71719 6.58084 2.73255 6.28901 2.92202 6.11849C3.11149 5.94797 3.40331 5.96333 3.57383 6.1528L4.8803 7.60443L8.41583 3.39546C8.57978 3.20028 8.87091 3.17497 9.06609 3.33892Z" fill="#65A300"/>
</svg>
