<svg width="10" height="7" viewBox="0 0 10 7" fill="none" xmlns="http://www.w3.org/2000/svg">
<path d="M4.63083 4.39833C4.72862 4.49583 4.86108 4.55059 4.99917 4.55059C5.13726 4.55059 5.26971 4.49583 5.3675 4.39833L9.40333 0.362501C9.43073 0.3352 9.44999 0.30081 9.45895 0.263183C9.46791 0.225556 9.46622 0.186177 9.45407 0.149457C9.44192 0.112736 9.41978 0.0801245 9.39014 0.0552734C9.3605 0.0304223 9.32453 0.0143133 9.28625 0.00875057C9.24666 0.00291663 9.20669 -7.82775e-06 9.16667 6.12906e-07H0.833333C0.793034 -4.86843e-05 0.752786 0.00287589 0.712917 0.00875057C0.674639 0.0143133 0.638666 0.0304223 0.609026 0.0552734C0.579386 0.0801245 0.55725 0.112736 0.545097 0.149457C0.532943 0.186177 0.531252 0.225556 0.540213 0.263183C0.549174 0.30081 0.568433 0.3352 0.595833 0.362501L4.63083 4.39833Z" fill="#4A5568"/>
<path d="M9.95333 0.763334C9.93941 0.75742 9.92403 0.755808 9.90918 0.758703C9.89433 0.761599 9.88068 0.768871 9.87 0.779584L7.28667 3.36292C7.26718 3.38251 7.25624 3.40903 7.25624 3.43667C7.25624 3.46431 7.26718 3.49082 7.28667 3.51042L9.38792 5.61167C9.41778 5.64048 9.4416 5.67495 9.45799 5.71307C9.47439 5.75119 9.48303 5.79219 9.48341 5.83368C9.48379 5.87518 9.4759 5.91633 9.46021 5.95474C9.44451 5.99316 9.42133 6.02806 9.392 6.05741C9.36267 6.08677 9.32779 6.10999 9.28939 6.12572C9.251 6.14145 9.20985 6.14938 9.16836 6.14903C9.12686 6.14869 9.08585 6.14009 9.04772 6.12373C9.00958 6.10737 8.97509 6.08358 8.94625 6.05375L6.845 3.9525C6.83532 3.9428 6.82383 3.9351 6.81117 3.92985C6.79852 3.9246 6.78495 3.9219 6.77125 3.9219C6.75755 3.9219 6.74398 3.9246 6.73133 3.92985C6.71867 3.9351 6.70717 3.9428 6.6975 3.9525L5.81042 4.83958C5.59555 5.05433 5.3042 5.17496 5.00042 5.17496C4.69663 5.17496 4.40528 5.05433 4.19042 4.83958L3.3025 3.95333C3.2829 3.93384 3.25639 3.9229 3.22875 3.9229C3.20111 3.9229 3.1746 3.93384 3.155 3.95333L1.05375 6.05458C0.994785 6.11148 0.915832 6.14294 0.833895 6.14219C0.751959 6.14144 0.673595 6.10854 0.615682 6.05057C0.557769 5.9926 0.524941 5.91421 0.524268 5.83227C0.523594 5.75033 0.55513 5.67141 0.612083 5.6125L2.71333 3.51125C2.73282 3.49165 2.74376 3.46514 2.74376 3.4375C2.74376 3.40986 2.73282 3.38335 2.71333 3.36375L0.13 0.780417C0.119378 0.769606 0.10573 0.762266 0.0908541 0.759365C0.0759781 0.756464 0.0605723 0.758138 0.0466667 0.764167C0.0329771 0.76987 0.02126 0.779462 0.0129656 0.791755C0.00467115 0.804049 0.000163342 0.818505 0 0.833334V5.83333C0 6.05435 0.0877974 6.26631 0.244078 6.42259C0.400358 6.57887 0.61232 6.66667 0.833333 6.66667H9.16667C9.38768 6.66667 9.59964 6.57887 9.75592 6.42259C9.9122 6.26631 10 6.05435 10 5.83333V0.833334C10.0001 0.81835 9.99564 0.803689 9.98733 0.791222C9.97902 0.778755 9.96719 0.769046 9.95333 0.763334Z" fill="#4A5568"/>
</svg>
