<svg width="18" height="24" viewBox="0 0 18 24" fill="none" xmlns="http://www.w3.org/2000/svg">
<path d="M3.76705 20V14.5455H4.5767V15.3977H4.64773C4.76136 15.1065 4.94484 14.8804 5.19815 14.7195C5.45147 14.5561 5.75568 14.4744 6.1108 14.4744C6.47064 14.4744 6.77012 14.5561 7.00923 14.7195C7.25071 14.8804 7.43892 15.1065 7.57386 15.3977H7.63068C7.77036 15.116 7.97988 14.8923 8.25923 14.7266C8.53859 14.5585 8.87358 14.4744 9.2642 14.4744C9.75189 14.4744 10.1508 14.6271 10.4609 14.9325C10.7711 15.2356 10.9261 15.7079 10.9261 16.3494V20H10.0881V16.3494C10.0881 15.947 9.97798 15.6593 9.75781 15.4865C9.53764 15.3137 9.27841 15.2273 8.98011 15.2273C8.59659 15.2273 8.29948 15.3433 8.08878 15.5753C7.87808 15.8049 7.77273 16.0961 7.77273 16.4489V20H6.92045V16.2642C6.92045 15.9541 6.81984 15.7043 6.61861 15.5149C6.41738 15.3232 6.15814 15.2273 5.84091 15.2273C5.62311 15.2273 5.41951 15.2853 5.23011 15.4013C5.04309 15.5173 4.89157 15.6783 4.77557 15.8842C4.66193 16.0878 4.60511 16.3234 4.60511 16.5909V20H3.76705ZM13.2965 12.7273V20H12.4585V12.7273H13.2965Z" fill="black"/>
<path d="M17.5 15.0549C17.4951 18.1031 16.4746 20.1904 14.9356 21.5237C13.381 22.8706 11.2371 23.5 8.91 23.5C6.58348 23.5 4.48759 22.871 2.97945 21.5282C1.48144 20.1944 0.5 18.1 0.5 15.033C0.5 12.0055 1.93883 9.05424 3.78171 6.47712C5.47687 4.10658 7.47693 2.10255 8.90903 0.700164C10.4689 2.24376 12.4088 4.30642 14.0567 6.6807C15.8287 9.23369 17.2358 12.1085 17.5 15.0549Z" stroke="black"/>
<path d="M4 10.5L5.55143 9.46571C6.44719 8.86854 7.59425 8.79713 8.55717 9.27858L9 9.5L9.65836 9.82918C10.5029 10.2515 11.4971 10.2515 12.3416 9.82918L14 9" stroke="black"/>
</svg>
