<svg width="10" height="10" viewBox="0 0 10 10" fill="none" xmlns="http://www.w3.org/2000/svg">
<path d="M2.5 0H0.555556C0.25 0 0 0.25 0 0.555556C0 5.77222 4.22778 10 9.44444 10C9.75 10 10 9.75 10 9.44444V7.50556C10 7.2 9.75 6.95 9.44444 6.95C8.75556 6.95 8.08333 6.83889 7.46111 6.63333C7.40596 6.61333 7.34753 6.60391 7.28889 6.60556C7.14445 6.60556 7.00556 6.66111 6.89444 6.76667L5.67222 7.98889C4.09746 7.18355 2.81645 5.90254 2.01111 4.32778L3.23333 3.10556C3.38889 2.95 3.43333 2.73333 3.37222 2.53889C3.16147 1.89892 3.05456 1.22933 3.05556 0.555556C3.05556 0.25 2.80556 0 2.5 0Z" fill="#4A5568"/>
</svg>
