<svg width="28" height="28" viewBox="0 0 28 28" fill="none" xmlns="http://www.w3.org/2000/svg">
<path d="M8.40777 28C7.63706 28 6.97728 27.7258 6.42844 27.1775C5.8796 26.6292 5.60518 25.97 5.60518 25.2C5.60518 24.43 5.8796 23.7708 6.42844 23.2225C6.97728 22.6742 7.63706 22.4 8.40777 22.4C9.17848 22.4 9.83826 22.6742 10.3871 23.2225C10.9359 23.7708 11.2104 24.43 11.2104 25.2C11.2104 25.97 10.9359 26.6292 10.3871 27.1775C9.83826 27.7258 9.17848 28 8.40777 28ZM22.4207 28C21.65 28 20.9902 27.7258 20.4414 27.1775C19.8925 26.6292 19.6181 25.97 19.6181 25.2C19.6181 24.43 19.8925 23.7708 20.4414 23.2225C20.9902 22.6742 21.65 22.4 22.4207 22.4C23.1914 22.4 23.8512 22.6742 24.4 23.2225C24.9489 23.7708 25.2233 24.43 25.2233 25.2C25.2233 25.97 24.9489 26.6292 24.4 27.1775C23.8512 27.7258 23.1914 28 22.4207 28ZM7.21667 5.6L10.5798 12.6H20.3888L24.2424 5.6H7.21667ZM5.88544 2.8H26.5545C27.0917 2.8 27.5004 3.03917 27.7807 3.5175C28.0609 3.99583 28.0726 4.48 27.8157 4.97L22.8411 13.93C22.5842 14.3967 22.2397 14.7583 21.8076 15.015C21.3756 15.2717 20.9026 15.4 20.3888 15.4H9.94919L8.40777 18.2H25.2233V21H8.40777C7.3568 21 6.56273 20.5392 6.02557 19.6175C5.4884 18.6958 5.46505 17.78 5.9555 16.87L7.84725 13.44L2.80259 2.8H0V0H4.55421L5.88544 2.8Z" fill="#E8EAED"/>
</svg>
