<svg width="100" height="100" viewBox="0 0 100 100" fill="none" xmlns="http://www.w3.org/2000/svg">
<circle cx="50" cy="50" r="48" stroke="white" stroke-width="4"/>
<circle cx="50" cy="50" r="36" stroke="white" stroke-width="4"/>
<rect y="35" width="100" height="30" fill="black"/>
<path d="M18.875 45.0859C18.5573 45.0859 18.3047 45.0911 18.1172 45.1016V50.7969C18.638 50.8229 19.0781 50.8359 19.4375 50.8359C20.3281 50.8359 21.1068 50.7578 21.7734 50.6016C22.4453 50.4453 22.987 50.138 23.3984 49.6797C23.8151 49.2161 24.0234 48.5599 24.0234 47.7109C24.0234 46.4766 23.2578 45.6693 21.7266 45.2891C21.1484 45.1536 20.1979 45.0859 18.875 45.0859ZM17.4453 55.9531L15.8047 56C15.5703 56 15.3854 55.9453 15.25 55.8359C15.1146 55.7214 15.0469 55.5703 15.0469 55.3828C15.0469 55.1953 15.125 55.0417 15.2812 54.9219C15.4427 54.8021 15.6562 54.7422 15.9219 54.7422H16.6641V45.1641C16.2786 45.1849 15.9167 45.1953 15.5781 45.1953C14.9115 45.1953 14.5781 44.974 14.5781 44.5312C14.5781 44.25 14.7786 44.0469 15.1797 43.9219C15.3203 43.875 15.4922 43.8516 15.6953 43.8516H18.3047C19.7266 43.8516 20.6068 43.8698 20.9453 43.9062C21.2891 43.9427 21.6589 43.9948 22.0547 44.0625C22.4557 44.125 22.8932 44.2708 23.3672 44.5C23.8411 44.7292 24.2396 45.0052 24.5625 45.3281C25.2292 45.9844 25.5625 46.7318 25.5625 47.5703C25.5625 48.4089 25.4375 49.1068 25.1875 49.6641C24.9375 50.2214 24.5469 50.6771 24.0156 51.0312C22.974 51.7292 21.2786 52.0781 18.9297 52.0781C18.7943 52.0781 18.6589 52.0781 18.5234 52.0781C18.388 52.0781 18.2526 52.0755 18.1172 52.0703V54.7422H18.8281C19.1927 54.7422 19.4479 54.8073 19.5938 54.9375C19.7448 55.0625 19.8203 55.1901 19.8203 55.3203C19.8203 55.7734 19.5417 56 18.9844 56L17.4453 55.9531ZM28.3359 51.2812L28.875 51.2969C29.0521 51.3021 29.6198 51.3047 30.5781 51.3047C31.5365 51.3047 32.1641 51.2266 32.4609 51.0703C32.7578 50.9141 32.9062 50.6771 32.9062 50.3594C32.9062 50.0417 32.7266 49.7604 32.3672 49.5156C32.0078 49.2708 31.6094 49.1484 31.1719 49.1484C30.4062 49.1484 29.776 49.3438 29.2812 49.7344C28.7865 50.125 28.4714 50.6406 28.3359 51.2812ZM33.5781 53.5391C34.0365 53.5391 34.2656 53.7448 34.2656 54.1562C34.2656 54.3438 34.1927 54.5547 34.0469 54.7891C33.9062 55.0182 33.6979 55.2318 33.4219 55.4297C32.776 55.888 31.9297 56.1172 30.8828 56.1172C29.8411 56.1172 28.9375 55.7656 28.1719 55.0625C27.7917 54.7135 27.487 54.2839 27.2578 53.7734C27.0286 53.263 26.9141 52.7031 26.9141 52.0938C26.9141 50.9062 27.3047 49.9141 28.0859 49.1172C28.8672 48.3151 29.8516 47.9141 31.0391 47.9141C32.0286 47.9141 32.8125 48.1562 33.3906 48.6406C33.974 49.1198 34.2656 49.7109 34.2656 50.4141C34.2656 51.1172 33.9818 51.6432 33.4141 51.9922C32.8464 52.3359 31.7682 52.5078 30.1797 52.5078C29.7578 52.5078 29.1328 52.4922 28.3047 52.4609C28.3984 53.2682 28.7109 53.875 29.2422 54.2812C29.7734 54.6823 30.3281 54.8828 30.9062 54.8828C31.4844 54.8828 31.9401 54.8203 32.2734 54.6953C32.612 54.5651 32.8542 54.3411 33 54.0234C33.151 53.7005 33.3438 53.5391 33.5781 53.5391ZM40.6641 56L38.6406 55.9531C38.4062 55.9531 38.2344 55.9557 38.125 55.9609L37.7812 55.9766C37.5208 55.9922 37.2917 56 37.0938 56C36.5885 56 36.3359 55.8073 36.3359 55.4219C36.3359 55.2344 36.4141 55.0885 36.5703 54.9844C36.7318 54.8802 36.9453 54.8281 37.2109 54.8281H37.9141V49.7344C37.9141 49.4219 37.8464 49.2656 37.7109 49.2656C37.6484 49.2656 37.5495 49.2839 37.4141 49.3203C37.2839 49.3568 37.1354 49.375 36.9688 49.375C36.8073 49.375 36.6615 49.3203 36.5312 49.2109C36.401 49.1016 36.3359 48.9531 36.3359 48.7656C36.3359 48.3698 36.6172 48.1432 37.1797 48.0859C37.5286 48.0547 37.8125 48.0078 38.0312 47.9453C38.2552 47.8828 38.4714 47.8516 38.6797 47.8516C39.0703 47.8516 39.2656 48.1016 39.2656 48.6016V49.8047C39.6719 48.9089 40.3385 48.3229 41.2656 48.0469C41.5625 47.9583 41.8594 47.9141 42.1562 47.9141C42.7135 47.9141 43.1615 48.0469 43.5 48.3125C43.8438 48.5729 44.0156 48.9479 44.0156 49.4375C44.0156 49.9271 43.9297 50.3021 43.7578 50.5625C43.5859 50.8229 43.3568 50.9531 43.0703 50.9531C42.6224 50.9531 42.3984 50.75 42.3984 50.3438C42.3984 50.2604 42.4062 50.1927 42.4219 50.1406L42.4844 49.9688C42.5312 49.8385 42.5547 49.7057 42.5547 49.5703C42.5547 49.2734 42.3021 49.125 41.7969 49.125C41.2917 49.125 40.7969 49.4115 40.3125 49.9844C39.8333 50.5573 39.4844 51.3125 39.2656 52.25V54.8281H40.5312C41.1979 54.8281 41.5312 55.0339 41.5312 55.4453C41.5312 55.5911 41.4661 55.7214 41.3359 55.8359C41.2109 55.9453 40.987 56 40.6641 56ZM49.5391 56L47.8438 55.9531C47.6562 55.9531 47.5078 55.9557 47.3984 55.9609L47.0547 55.9766C46.7891 55.9922 46.5495 56 46.3359 56C46.1224 56 45.9453 55.9505 45.8047 55.8516C45.6693 55.7526 45.6016 55.6094 45.6016 55.4219C45.6016 55.2344 45.6823 55.0885 45.8438 54.9844C46.0052 54.8802 46.2188 54.8281 46.4844 54.8281H47.1016V49.0625C47.0703 49.0677 47.0417 49.0703 47.0156 49.0703H46.9297C46.6641 49.0859 46.4245 49.0938 46.2109 49.0938C45.9974 49.0938 45.8203 49.0443 45.6797 48.9453C45.5443 48.8411 45.4766 48.6979 45.4766 48.5156C45.4766 48.3281 45.5443 48.1823 45.6797 48.0781C45.8203 47.974 45.9974 47.9219 46.2109 47.9219C46.4245 47.9219 46.6641 47.9297 46.9297 47.9453L47.1016 47.9609V46.3047C47.1016 45.4609 47.3177 44.7917 47.75 44.2969C48.1823 43.7969 48.7318 43.5469 49.3984 43.5469C50.0703 43.5469 50.5781 43.6849 50.9219 43.9609C51.2656 44.2318 51.4375 44.612 51.4375 45.1016C51.4375 45.3307 51.3802 45.513 51.2656 45.6484C51.151 45.7786 51.0026 45.8438 50.8203 45.8438C50.4818 45.8438 50.263 45.6693 50.1641 45.3203C50.0703 44.9714 49.8099 44.7969 49.3828 44.7969C48.7682 44.7969 48.4609 45.3932 48.4609 46.5859V47.9688L48.7812 47.9453C49.1615 47.9297 49.5208 47.9219 49.8594 47.9219C50.2031 47.9219 50.4375 47.9792 50.5625 48.0938C50.6875 48.2031 50.75 48.3125 50.75 48.4219C50.75 48.8698 50.4401 49.0938 49.8203 49.0938C49.2005 49.0938 48.7474 49.0807 48.4609 49.0547V54.8281H49.3984C50.0495 54.8281 50.375 55.0339 50.375 55.4453C50.375 55.5911 50.3099 55.7214 50.1797 55.8359C50.0547 55.9453 49.8411 56 49.5391 56ZM57.8828 54.5312C57.3672 55.5885 56.5026 56.1172 55.2891 56.1172C54.8932 56.1172 54.526 56.0469 54.1875 55.9062C53.2448 55.5104 52.7734 54.6432 52.7734 53.3047V49.7969C52.7734 49.4948 52.7057 49.3438 52.5703 49.3438L51.9922 49.4375C51.5286 49.4375 51.2969 49.224 51.2969 48.7969C51.2969 48.4167 51.5469 48.2031 52.0469 48.1562C52.3438 48.1302 52.5755 48.0938 52.7422 48.0469L53.1406 47.9531C53.2396 47.9271 53.3802 47.9141 53.5625 47.9141C53.7448 47.9141 53.8854 47.9844 53.9844 48.125C54.0833 48.2656 54.1328 48.4453 54.1328 48.6641V52.7969C54.1328 53.8438 54.3958 54.4896 54.9219 54.7344C55.1146 54.8229 55.3411 54.8672 55.6016 54.8672C56.0911 54.8672 56.5469 54.6276 56.9688 54.1484C57.3906 53.6693 57.6875 53.0833 57.8594 52.3906V49.7969C57.8594 49.599 57.8411 49.474 57.8047 49.4219C57.7682 49.3698 57.7161 49.3438 57.6484 49.3438L57.1016 49.4375C56.638 49.4375 56.4062 49.224 56.4062 48.7969C56.4062 48.4167 56.6615 48.2031 57.1719 48.1562C57.4427 48.1302 57.6641 48.0964 57.8359 48.0547L58.2266 47.9531C58.3203 47.9271 58.4583 47.9141 58.6406 47.9141C58.8281 47.9141 58.9688 47.9844 59.0625 48.125C59.1615 48.2656 59.2109 48.4453 59.2109 48.6641V52.9141C59.2109 53.8932 59.3307 54.4948 59.5703 54.7188C59.6432 54.7865 59.7396 54.8438 59.8594 54.8906C60.0677 54.974 60.1719 55.138 60.1719 55.3828C60.1719 55.8724 59.8802 56.1172 59.2969 56.1172C58.7188 56.1172 58.3073 55.8281 58.0625 55.25C57.974 55.0469 57.9141 54.8073 57.8828 54.5312ZM64.9766 56L63.4531 55.9531L62.6641 55.9766C62.4609 55.9922 62.2292 56 61.9688 56C61.4688 56 61.2188 55.8073 61.2188 55.4219C61.2188 55.2344 61.2969 55.0885 61.4531 54.9844C61.6094 54.8802 61.8255 54.8281 62.1016 54.8281H62.7891V49.7344C62.7891 49.4219 62.7266 49.2656 62.6016 49.2656C62.5234 49.2656 62.4219 49.2839 62.2969 49.3203C62.1771 49.3568 62.0312 49.375 61.8594 49.375C61.6875 49.375 61.5365 49.3203 61.4062 49.2109C61.2812 49.1016 61.2188 48.9531 61.2188 48.7656C61.2188 48.3646 61.5026 48.138 62.0703 48.0859C62.4141 48.0547 62.6953 48.0078 62.9141 47.9453C63.1328 47.8828 63.3125 47.8516 63.4531 47.8516C63.9271 47.8516 64.1641 48.1016 64.1641 48.6016V49.4844C64.4401 49.0156 64.8203 48.638 65.3047 48.3516C65.7943 48.0599 66.2734 47.9141 66.7422 47.9141C68.1536 47.9141 69.0443 48.4714 69.4141 49.5859C69.6745 49.0911 70.0573 48.6901 70.5625 48.3828C71.0677 48.0703 71.5729 47.9141 72.0781 47.9141C73.0365 47.9141 73.7474 48.1641 74.2109 48.6641C74.6797 49.1589 74.9141 49.8255 74.9141 50.6641V54.8672L75.4375 54.875C76.0938 54.875 76.4219 55.0807 76.4219 55.4922C76.4219 55.638 76.3594 55.7682 76.2344 55.8828C76.1094 55.9922 75.9453 56.0469 75.7422 56.0469C75.237 56.0469 74.8984 56.0312 74.7266 56C74.5547 55.9688 74.3802 55.9531 74.2031 55.9531C74.026 55.9531 73.8802 55.9557 73.7656 55.9609L73.4219 55.9766C73.2344 55.9922 72.9948 56 72.7031 56C72.1979 56 71.9453 55.8073 71.9453 55.4219C71.9453 55.2344 72.0234 55.0885 72.1797 54.9844C72.3411 54.8802 72.5547 54.8281 72.8203 54.8281L73.5625 54.8438V51.1719C73.5625 49.8333 73.0443 49.1641 72.0078 49.1641C71.5339 49.1641 71.0495 49.3984 70.5547 49.8672C70.0651 50.3359 69.737 50.9115 69.5703 51.5938V54.8281H70.0938C70.75 54.8281 71.0781 55.0339 71.0781 55.4453C71.0781 55.5911 71.0156 55.7214 70.8906 55.8359C70.7656 55.9453 70.6016 56 70.3984 56L68.9141 55.9531C68.6953 55.9531 68.5312 55.9557 68.4219 55.9609L68.0781 55.9766C67.8281 55.9922 67.5911 56 67.3672 56C67.1484 56 66.9661 55.9505 66.8203 55.8516C66.6797 55.7526 66.6094 55.6094 66.6094 55.4219C66.6094 55.2344 66.6927 55.0885 66.8594 54.9844C67.026 54.8802 67.2474 54.8281 67.5234 54.8281H68.2188V51.1719C68.2188 49.8333 67.6927 49.1641 66.6406 49.1641C66.1615 49.1641 65.6693 49.3984 65.1641 49.8672C64.6641 50.3359 64.3307 50.9115 64.1641 51.5938V54.8281H64.6719C65.3281 54.8281 65.6562 55.0339 65.6562 55.4453C65.6562 55.5911 65.5938 55.7214 65.4688 55.8359C65.3438 55.9453 65.1797 56 64.9766 56ZM78.8828 51.2812L79.4219 51.2969C79.599 51.3021 80.1667 51.3047 81.125 51.3047C82.0833 51.3047 82.7109 51.2266 83.0078 51.0703C83.3047 50.9141 83.4531 50.6771 83.4531 50.3594C83.4531 50.0417 83.2734 49.7604 82.9141 49.5156C82.5547 49.2708 82.1562 49.1484 81.7188 49.1484C80.9531 49.1484 80.3229 49.3438 79.8281 49.7344C79.3333 50.125 79.0182 50.6406 78.8828 51.2812ZM84.125 53.5391C84.5833 53.5391 84.8125 53.7448 84.8125 54.1562C84.8125 54.3438 84.7396 54.5547 84.5938 54.7891C84.4531 55.0182 84.2448 55.2318 83.9688 55.4297C83.3229 55.888 82.4766 56.1172 81.4297 56.1172C80.388 56.1172 79.4844 55.7656 78.7188 55.0625C78.3385 54.7135 78.0339 54.2839 77.8047 53.7734C77.5755 53.263 77.4609 52.7031 77.4609 52.0938C77.4609 50.9062 77.8516 49.9141 78.6328 49.1172C79.4141 48.3151 80.3984 47.9141 81.5859 47.9141C82.5755 47.9141 83.3594 48.1562 83.9375 48.6406C84.5208 49.1198 84.8125 49.7109 84.8125 50.4141C84.8125 51.1172 84.5286 51.6432 83.9609 51.9922C83.3932 52.3359 82.3151 52.5078 80.7266 52.5078C80.3047 52.5078 79.6797 52.4922 78.8516 52.4609C78.9453 53.2682 79.2578 53.875 79.7891 54.2812C80.3203 54.6823 80.875 54.8828 81.4531 54.8828C82.0312 54.8828 82.487 54.8203 82.8203 54.6953C83.1589 54.5651 83.401 54.3411 83.5469 54.0234C83.6979 53.7005 83.8906 53.5391 84.125 53.5391Z" fill="white"/>
</svg>
