<svg width="28" height="26" viewBox="0 0 28 26" fill="none" xmlns="http://www.w3.org/2000/svg">
<path d="M14 25.69L11.97 23.87C9.61333 21.7467 7.665 19.915 6.125 18.375C4.585 16.835 3.36 15.4525 2.45 14.2275C1.54 13.0025 0.904167 11.8767 0.5425 10.85C0.180833 9.82333 0 8.77333 0 7.7C0 5.50667 0.735 3.675 2.205 2.205C3.675 0.735 5.50667 0 7.7 0C8.91333 0 10.0683 0.256667 11.165 0.77C12.2617 1.28333 13.2067 2.00667 14 2.94C14.7933 2.00667 15.7383 1.28333 16.835 0.77C17.9317 0.256667 19.0867 0 20.3 0C22.4933 0 24.325 0.735 25.795 2.205C27.265 3.675 28 5.50667 28 7.7C28 8.77333 27.8192 9.82333 27.4575 10.85C27.0958 11.8767 26.46 13.0025 25.55 14.2275C24.64 15.4525 23.415 16.835 21.875 18.375C20.335 19.915 18.3867 21.7467 16.03 23.87L14 25.69ZM14 21.91C16.24 19.9033 18.0833 18.1825 19.53 16.7475C20.9767 15.3125 22.12 14.0642 22.96 13.0025C23.8 11.9408 24.3833 10.9958 24.71 10.1675C25.0367 9.33917 25.2 8.51667 25.2 7.7C25.2 6.3 24.7333 5.13333 23.8 4.2C22.8667 3.26667 21.7 2.8 20.3 2.8C19.2033 2.8 18.1883 3.10917 17.255 3.7275C16.3217 4.34583 15.68 5.13333 15.33 6.09H12.67C12.32 5.13333 11.6783 4.34583 10.745 3.7275C9.81167 3.10917 8.79667 2.8 7.7 2.8C6.3 2.8 5.13333 3.26667 4.2 4.2C3.26667 5.13333 2.8 6.3 2.8 7.7C2.8 8.51667 2.96333 9.33917 3.29 10.1675C3.61667 10.9958 4.2 11.9408 5.04 13.0025C5.88 14.0642 7.02333 15.3125 8.47 16.7475C9.91667 18.1825 11.76 19.9033 14 21.91Z" fill="white"/>
</svg>
