<svg width="21" height="17" viewBox="0 0 21 17" fill="none" xmlns="http://www.w3.org/2000/svg">
<path d="M16.8553 17C15.6947 17 14.7138 16.6265 13.9125 15.8795C13.1112 15.1326 12.7105 14.2182 12.7105 13.1364C12.7105 12.0545 13.1112 11.1402 13.9125 10.3932C14.7138 9.64621 15.6947 9.27273 16.8553 9.27273C18.0158 9.27273 18.9967 9.64621 19.798 10.3932C20.5993 11.1402 21 12.0545 21 13.1364C21 14.2182 20.5993 15.1326 19.798 15.8795C18.9967 16.6265 18.0158 17 16.8553 17ZM16.8553 14.9394C17.3895 14.9394 17.8454 14.7634 18.223 14.4114C18.6007 14.0593 18.7895 13.6343 18.7895 13.1364C18.7895 12.6384 18.6007 12.2134 18.223 11.8614C17.8454 11.5093 17.3895 11.3333 16.8553 11.3333C16.3211 11.3333 15.8651 11.5093 15.4875 11.8614C15.1099 12.2134 14.9211 12.6384 14.9211 13.1364C14.9211 13.6343 15.1099 14.0593 15.4875 14.4114C15.8651 14.7634 16.3211 14.9394 16.8553 14.9394ZM1.65789 14.1667V12.1061H10.5V14.1667H1.65789ZM4.14474 7.72727C2.98421 7.72727 2.00329 7.35379 1.20197 6.60682C0.400658 5.85985 0 4.94545 0 3.86364C0 2.78182 0.400658 1.86742 1.20197 1.12045C2.00329 0.373485 2.98421 0 4.14474 0C5.30526 0 6.28618 0.373485 7.0875 1.12045C7.88882 1.86742 8.28947 2.78182 8.28947 3.86364C8.28947 4.94545 7.88882 5.85985 7.0875 6.60682C6.28618 7.35379 5.30526 7.72727 4.14474 7.72727ZM4.14474 5.66667C4.67895 5.66667 5.13487 5.49066 5.5125 5.13864C5.89013 4.78662 6.07895 4.36162 6.07895 3.86364C6.07895 3.36566 5.89013 2.94066 5.5125 2.58864C5.13487 2.23662 4.67895 2.06061 4.14474 2.06061C3.61053 2.06061 3.15461 2.23662 2.77697 2.58864C2.39934 2.94066 2.21053 3.36566 2.21053 3.86364C2.21053 4.36162 2.39934 4.78662 2.77697 5.13864C3.15461 5.49066 3.61053 5.66667 4.14474 5.66667ZM10.5 4.89394V2.83333H19.3421V4.89394H10.5Z" fill="white"/>
</svg>
