<svg width="68" height="83" viewBox="0 0 68 83" fill="none" xmlns="http://www.w3.org/2000/svg">
<path d="M33.75 44.1765C29.1093 44.1765 25.1367 42.2757 21.832 38.4743C18.5273 34.6728 16.875 30.1029 16.875 24.7647V7.77941C16.875 5.75735 17.4902 4.0386 18.7207 2.62316C19.9511 1.20772 21.4453 0.5 23.2031 0.5C24.2578 0.5 25.2597 0.783088 26.209 1.34926C27.1582 1.91544 27.914 2.72426 28.4765 3.77574C29.039 2.72426 29.7949 1.91544 30.7441 1.34926C31.6933 0.783088 32.6953 0.5 33.75 0.5C34.8047 0.5 35.8066 0.783088 36.7558 1.34926C37.7051 1.91544 38.4609 2.72426 39.0234 3.77574C39.5859 2.72426 40.3418 1.91544 41.291 1.34926C42.2402 0.783088 43.2422 0.5 44.2968 0.5C46.0547 0.5 47.5488 1.20772 48.7793 2.62316C50.0097 4.0386 50.625 5.75735 50.625 7.77941V24.7647C50.625 30.1029 48.9726 34.6728 45.6679 38.4743C42.3633 42.2757 38.3906 44.1765 33.75 44.1765ZM33.75 34.4706C36.0703 34.4706 38.0566 33.5202 39.709 31.6195C41.3613 29.7187 42.1875 27.4338 42.1875 24.7647V12.6324H25.3125V24.7647C25.3125 27.4338 26.1386 29.7187 27.791 31.6195C29.4433 33.5202 31.4297 34.4706 33.75 34.4706ZM-3.05176e-05 83V69.4118C-3.05176e-05 66.6618 0.615204 64.1342 1.84567 61.829C3.07614 59.5239 4.71091 57.7647 6.74997 56.5515C11.1093 54.0441 15.539 52.1636 20.039 50.9099C24.539 49.6562 29.1093 49.0294 33.75 49.0294C38.3906 49.0294 42.9609 49.6562 47.4609 50.9099C51.9609 52.1636 56.3906 54.0441 60.75 56.5515C62.789 57.7647 64.4238 59.5239 65.6543 61.829C66.8847 64.1342 67.5 66.6618 67.5 69.4118V83H-3.05176e-05ZM8.43747 73.2941H59.0625V69.4118C59.0625 68.5221 58.8691 67.7132 58.4824 66.9853C58.0957 66.2573 57.5859 65.6912 56.9531 65.2868C53.1562 63.1029 49.3242 61.4651 45.457 60.3732C41.5898 59.2812 37.6875 58.7353 33.75 58.7353C29.8125 58.7353 25.9101 59.2812 22.0429 60.3732C18.1758 61.4651 14.3437 63.1029 10.5468 65.2868C9.91403 65.6912 9.40427 66.2573 9.01755 66.9853C8.63083 67.7132 8.43747 68.5221 8.43747 69.4118V73.2941Z" fill="white"/>
</svg>
