<svg width="28" height="28" viewBox="0 0 28 28" fill="none" xmlns="http://www.w3.org/2000/svg">
<path d="M25.8222 28L16.0222 18.2C15.2444 18.8222 14.35 19.3148 13.3389 19.6778C12.3278 20.0407 11.2519 20.2222 10.1111 20.2222C7.28519 20.2222 4.89352 19.2435 2.93611 17.2861C0.978704 15.3287 0 12.937 0 10.1111C0 7.28519 0.978704 4.89352 2.93611 2.93611C4.89352 0.978704 7.28519 0 10.1111 0C12.937 0 15.3287 0.978704 17.2861 2.93611C19.2435 4.89352 20.2222 7.28519 20.2222 10.1111C20.2222 11.2519 20.0407 12.3278 19.6778 13.3389C19.3148 14.35 18.8222 15.2444 18.2 16.0222L28 25.8222L25.8222 28ZM10.1111 17.1111C12.0556 17.1111 13.7083 16.4306 15.0694 15.0694C16.4306 13.7083 17.1111 12.0556 17.1111 10.1111C17.1111 8.16667 16.4306 6.51389 15.0694 5.15278C13.7083 3.79167 12.0556 3.11111 10.1111 3.11111C8.16667 3.11111 6.51389 3.79167 5.15278 5.15278C3.79167 6.51389 3.11111 8.16667 3.11111 10.1111C3.11111 12.0556 3.79167 13.7083 5.15278 15.0694C6.51389 16.4306 8.16667 17.1111 10.1111 17.1111Z" fill="#E8EAED"/>
</svg>
