<svg width="11" height="12" viewBox="0 0 11 12" fill="none" xmlns="http://www.w3.org/2000/svg">
<path fill-rule="evenodd" clip-rule="evenodd" d="M1.22222 9.88974C0.548167 9.88974 0 9.33529 0 8.65352V1.23622C0 0.554443 0.548167 0 1.22222 0H9.77778C10.4518 0 11 0.554443 11 1.23622V8.65352C11 9.33529 10.4518 9.88974 9.77778 9.88974H7.58633L5.5 12L3.41367 9.88974H1.22222ZM9.77778 1.23622H1.22222V8.65352H3.91967L5.5 10.252L7.08033 8.65352H9.77778V1.23622ZM6.11042 7.41753H4.8882V5.5632H3.05486V4.32698H4.8882V2.47266H6.11042V4.32698H7.94375V5.5632H6.11042V7.41753Z" fill="#E1980C"/>
</svg>
